<svg width="32" height="32" viewBox="0 0 32 32" fill="none" xmlns="http://www.w3.org/2000/svg">
<g clip-path="url(#clip0_2149_2201)">
<path d="M7.81004 20.0639C7.94987 20.2032 8.06083 20.3688 8.13654 20.5512C8.21225 20.7335 8.25122 20.929 8.25122 21.1264C8.25122 21.3238 8.21225 21.5193 8.13654 21.7016C8.06083 21.8839 7.94987 22.0495 7.81004 22.1889L-2.18996 32.1889C-2.32932 32.3287 -2.49491 32.4397 -2.67724 32.5154C-2.85956 32.5911 -3.05504 32.6301 -3.25246 32.6301C-3.44989 32.6301 -3.64536 32.5911 -3.82769 32.5154C-4.01002 32.4397 -4.17561 32.3287 -4.31496 32.1889L-14.315 22.1889C-14.4545 22.0494 -14.5652 21.8837 -14.6407 21.7014C-14.7162 21.5191 -14.7551 21.3237 -14.7551 21.1264C-14.7551 20.9291 -14.7162 20.7337 -14.6407 20.5514C-14.5652 20.3691 -14.4545 20.2034 -14.315 20.0639C-14.1754 19.9244 -14.0098 19.8137 -13.8275 19.7382C-13.6452 19.6626 -13.4498 19.6238 -13.2525 19.6238C-13.0551 19.6238 -12.8597 19.6626 -12.6774 19.7382C-12.4951 19.8137 -12.3295 19.9244 -12.19 20.0639L-3.25121 29.0001L5.68753 20.0601C5.82709 19.9209 5.99272 19.8106 6.17495 19.7354C6.35718 19.6602 6.55244 19.6217 6.74957 19.6221C6.94669 19.6224 7.14181 19.6616 7.32377 19.7374C7.50574 19.8132 7.67097 19.9242 7.81004 20.0639ZM-4.31496 22.1889C-4.17561 22.3287 -4.01002 22.4397 -3.82769 22.5154C-3.64536 22.5911 -3.44989 22.6301 -3.25246 22.6301C-3.05504 22.6301 -2.85956 22.5911 -2.67724 22.5154C-2.49491 22.4397 -2.32932 22.3287 -2.18996 22.1889L7.81004 12.1889C7.94957 12.0494 8.06025 11.8837 8.13576 11.7014C8.21127 11.5191 8.25014 11.3237 8.25014 11.1264C8.25014 10.9291 8.21127 10.7337 8.13576 10.5514C8.06025 10.3691 7.94957 10.2034 7.81004 10.0639C7.67051 9.92435 7.50486 9.81367 7.32256 9.73816C7.14025 9.66264 6.94486 9.62378 6.74754 9.62378C6.55021 9.62378 6.35482 9.66264 6.17252 9.73816C5.99021 9.81367 5.82457 9.92435 5.68504 10.0639L-3.25121 19.0001L-12.19 10.0639C-12.4718 9.78209 -12.8539 9.62378 -13.2525 9.62378C-13.651 9.62378 -14.0332 9.78209 -14.315 10.0639C-14.5968 10.3457 -14.7551 10.7279 -14.7551 11.1264C-14.7551 11.5249 -14.5968 11.9071 -14.315 12.1889L-4.31496 22.1889Z" fill="#E2E4E9"/>
</g>
<defs>
<clipPath id="clip0_2149_2201">
<rect width="32" height="32" fill="white"/>
</clipPath>
</defs>
</svg>
